<svg xmlns="http://www.w3.org/2000/svg" width="461.292" height="513" viewBox="0 0 461.292 513">
  <path id="logo" d="M-769.343,813.556l-47.071-27.172V695.791l78.559,43.362,78.559-43.362v90.593l-47.07,27.172A62.907,62.907,0,0,1-737.855,822,62.9,62.9,0,0,1-769.343,813.556ZM-568.3,480.137a13.568,13.568,0,0,0-20.36-11.75L-737.74,552.5l-149.314-84.111a13.57,13.57,0,0,0-20.36,11.75V733.854l-29.1-16.8A63.019,63.019,0,0,1-968,662.522V469.478a63.021,63.021,0,0,1,31.489-54.536l167.169-96.5a62.932,62.932,0,0,1,62.976,0l167.17,96.5a63.005,63.005,0,0,1,31.488,54.536V662.522A63,63,0,0,1-539.2,717.05l-29.1,16.8Z" transform="translate(968.501 -309.5)" fill="#44c9f6" stroke="rgba(0,0,0,0)" stroke-miterlimit="10" stroke-width="1"/>
</svg>
